<?xml version="1.0" standalone="no"?>
<!DOCTYPE svg PUBLIC "-//W3C//DTD SVG 20010904//EN"
 "http://www.w3.org/TR/2001/REC-SVG-20010904/DTD/svg10.dtd">
<svg version="1.0" xmlns="http://www.w3.org/2000/svg"
 width="50px" height="39px" viewBox="0 0 512.000000 512.000000"
 preserveAspectRatio="xMidYMid meet">

<g transform="translate(0.000000,512.000000) scale(0.100000,-0.100000)"
fill="#000000" stroke="none">
<path d="M1345 4414 c-369 -212 -714 -412 -768 -443 l-98 -56 1040 -3 c573 -1
1509 -1 2082 0 l1041 3 -769 443 -769 442 -545 0 -544 0 -670 -386z"/>
<path d="M765 3747 c33 -22 1769 -1025 1785 -1032 10 -3 368 199 915 515 494
286 901 523 904 525 2 3 -812 5 -1810 5 -1520 0 -1810 -2 -1794 -13z"/>
<path d="M3775 3015 l-1040 -601 -3 -1203 c-1 -731 2 -1200 7 -1197 5 4 30 42
55 86 l47 80 95 0 95 0 887 511 c488 280 890 514 895 518 4 4 6 547 5 1207
l-3 1200 -1040 -601z"/>
<path d="M302 2409 l3 -1202 890 -513 890 -513 97 -1 97 0 47 -80 c25 -44 50
-82 55 -86 5 -3 8 466 7 1197 l-3 1203 -1035 598 c-569 329 -1038 598 -1042
598 -5 0 -7 -541 -6 -1201z"/>
</g>
</svg>
